<?xml version="1.0" encoding="UTF-8" standalone="no"?>
<svg
   version="1.1"
   width="60"
   height="60"
   style="clip-rule:evenodd;fill-rule:evenodd;image-rendering:optimizeQuality;shape-rendering:geometricPrecision;text-rendering:geometricPrecision"
   id="svg280"
   xml:space="preserve"
   viewBox="0 0 937.5 937.5"
   xmlns="http://www.w3.org/2000/svg"
   xmlns:svg="http://www.w3.org/2000/svg"><defs
     id="defs284"><style
       id="style390">.l{fill:#fff}</style></defs><g
     id="g146"
     transform="translate(-40.000001,-20)"><path
       style="opacity:0.974"
       fill="#f7e346"
       d="m 522.5,50.5 c -49.184,40.0945 -98.184,80.428 -147,121 -6.667,0 -13.333,0 -20,0 45.795,-48.138 91.795,-96.4717 138,-145 1.223,-1.1139 2.556,-1.2805 4,-0.5 8.507,8.0067 16.84,16.1734 25,24.5 z"
       id="path144" /></g><g
     id="g150"
     transform="translate(-40.000001,-20)"><path
       style="opacity:0.992"
       fill="#428edb"
       d="m 599.5,59.5 c -66.498,37.0814 -132.832,74.415 -199,112 -5,0 -10,0 -15,0 48.209,-35.025 96.875,-69.525 146,-103.5 2.186,-1.4117 3.852,-3.245 5,-5.5 14.556,-9.8659 29.056,-19.8659 43.5,-30 0.772,0.1448 1.439,0.4781 2,1 5.619,8.9336 11.452,17.6003 17.5,26 z"
       id="path148" /></g><g
     id="g154"
     transform="translate(-40.000001,-20)"><path
       style="opacity:1"
       fill="#a39730"
       d="m 522.5,50.5 c 5.011,3.6842 9.678,7.6842 14,12 -1.148,2.255 -2.814,4.0883 -5,5.5 -49.125,33.975 -97.791,68.475 -146,103.5 -3.333,0 -6.667,0 -10,0 48.816,-40.572 97.816,-80.9055 147,-121 z"
       id="path152" /></g><g
     id="g158"
     transform="translate(-40.000001,-20)"><path
       style="opacity:0.995"
       fill="#95d404"
       d="m 676.5,93.5 c -78.069,23.847 -156.069,47.68 -234,71.5 -2.258,0.876 -4.258,2.043 -6,3.5 -3.366,1.216 -6.699,2.216 -10,3 -5.858,0.322 -11.525,-0.011 -17,-1 66.781,-31.69 133.448,-63.357 200,-95 0.798,-0.4569 1.131,-1.1236 1,-2 15.384,-6.6296 30.551,-13.6296 45.5,-21 1.221,0.7718 2.221,1.7718 3,3 6.02,12.5385 11.853,25.2052 17.5,38 z"
       id="path156" /></g><g
     id="g162"
     transform="translate(-40.000001,-20)"><path
       style="opacity:0.997"
       fill="#2b5e91"
       d="m 599.5,59.5 c 3.667,4.6667 7.333,9.3333 11,14 0.131,0.8764 -0.202,1.5431 -1,2 -66.552,31.643 -133.219,63.31 -200,95 -2.891,0.903 -5.891,1.236 -9,1 66.168,-37.585 132.502,-74.9186 199,-112 z"
       id="path160" /></g><g
     id="g166"
     transform="translate(-40.000001,-20)"><path
       style="opacity:0.996"
       fill="#699400"
       d="m 676.5,93.5 c 2.038,4.8325 4.371,9.499 7,14 -82.099,20.775 -164.433,41.108 -247,61 1.742,-1.457 3.742,-2.624 6,-3.5 77.931,-23.82 155.931,-47.653 234,-71.5 z"
       id="path164" /></g><g
     id="g170"
     transform="translate(-40.000001,-20)"><path
       style="opacity:0.999"
       fill="#fd4f57"
       d="m 758.5,157.5 c -88.172,4.301 -176.172,8.968 -264,14 -22.667,0 -45.333,0 -68,0 3.301,-0.784 6.634,-1.784 10,-3 82.567,-19.892 164.901,-40.225 247,-61 16.585,-4.402 33.252,-8.5691 50,-12.5 3.021,-0.6735 6.021,-1.0068 9,-1 6.029,20.972 11.362,42.139 16,63.5 z"
       id="path168" /></g><g
     id="g174"
     transform="translate(-40.000001,-20)"><path
       style="opacity:0.999"
       fill="#b0363c"
       d="m 758.5,157.5 c 1.771,4.088 2.771,8.421 3,13 -88.832,0.999 -177.832,1.333 -267,1 87.828,-5.032 175.828,-9.699 264,-14 z"
       id="path172" /></g><g
     id="g178"
     transform="translate(-40.000001,-20)"><path
       style="opacity:0.999"
       fill="#b0363c"
       d="m 172.5,232.5 c 0,87.667 0,175.333 0,263 -4.963,-86.335 -9.963,-172.668 -15,-259 4.911,-1.321 9.911,-2.655 15,-4 z"
       id="path176" /></g><g
     id="g182"
     transform="translate(-40.000001,-20)"><path
       style="opacity:0.998"
       fill="#fe4f57"
       d="m 157.5,236.5 c 5.037,86.332 10.037,172.665 15,259 0,8.333 0,16.667 0,25 -17.153,-67.336 -33.653,-135.003 -49.5,-203 -0.725,-3.29 -1.892,-6.29 -3.5,-9 -4.275,-16.524 -8.442,-33.19 -12.5,-50 -0.868,-2.985 -1.201,-5.985 -1,-9 1.648,-1.217 3.481,-2.05 5.5,-2.5 15.278,-3.823 30.611,-7.323 46,-10.5 z"
       id="path180" /></g><g
     id="g186"
     transform="translate(-40.000001,-20)"><path
       style="opacity:0.996"
       fill="#6b9202"
       d="m 119.5,308.5 c 1.608,2.71 2.775,5.71 3.5,9 15.847,67.997 32.347,135.664 49.5,203 0,3 0,6 0,9 -22.623,-71.132 -44.956,-142.466 -67,-214 4.658,-2.332 9.325,-4.665 14,-7 z"
       id="path184" /></g><g
     id="g190"
     transform="translate(-40.000001,-20)"><path
       style="opacity:0.995"
       fill="#95d502"
       d="m 105.5,315.5 c 22.044,71.534 44.377,142.868 67,214 0.327,10.181 -0.006,20.181 -1,30 -27.683,-59.038 -55.683,-118.038 -84,-177 -0.4569,-0.798 -1.1236,-1.131 -2,-1 -6.625,-15.318 -13.625,-30.485 -21,-45.5 0.2591,-1.261 0.9258,-2.261 2,-3 12.7807,-6.316 25.7807,-12.149 39,-17.5 z"
       id="path188" /></g><g
     id="g194"
     transform="translate(-40.000001,-20)"><path
       style="opacity:0.979"
       fill="#f7e346"
       d="m 827.5,342.5 c 20.81,19.641 41.81,39.141 63,58.5 26.184,26.351 52.851,52.184 80,77.5 0.209,0.586 0.543,1.086 1,1.5 -2.801,1.976 -4.968,4.476 -6.5,7.5 -7.643,7.762 -15.476,15.429 -23.5,23 -38,-46.333 -76,-92.667 -114,-139 0,-9.667 0,-19.333 0,-29 z"
       id="path192" /></g><g
     id="g198"
     transform="translate(-40.000001,-20)"><path
       style="opacity:1"
       fill="#a39730"
       d="m 827.5,371.5 c 38,46.333 76,92.667 114,139 -4.081,4.68 -8.081,9.347 -12,14 -1.175,0.219 -2.175,-0.114 -3,-1 -32.669,-46.653 -65.669,-92.986 -99,-139 0,-4.333 0,-8.667 0,-13 z"
       id="path196" /></g><g
     id="g202"
     transform="translate(-40.000001,-20)"><path
       style="opacity:0.997"
       fill="#2c5e90"
       d="m 85.5,381.5 c 0.8764,-0.131 1.5431,0.202 2,1 28.317,58.962 56.317,117.962 84,177 0.923,3.564 1.256,7.231 1,11 -33.274,-59.409 -66.94,-118.742 -101,-178 4.2646,-4.138 8.9313,-7.805 14,-11 z"
       id="path200" /></g><g
     id="g206"
     transform="translate(-40.000001,-20)"><path
       style="opacity:0.991"
       fill="#428edb"
       d="m 827.5,384.5 c 33.331,46.014 66.331,92.347 99,139 0.825,0.886 1.825,1.219 3,1 -0.149,1.052 0.017,2.052 0.5,3 9.897,12.007 18.897,24.673 27,38 0.903,1.201 2.069,2.035 3.5,2.5 -0.667,1 -1.333,2 -2,3 -8.124,5.043 -15.791,10.543 -23,16.5 -1.052,0.149 -2.052,-0.017 -3,-0.5 -34.592,-62.011 -69.592,-123.845 -105,-185.5 0,-5.667 0,-11.333 0,-17 z"
       id="path204" /></g><g
     id="g210"
     transform="translate(-40.000001,-20)"><path
       style="opacity:0.99"
       fill="#418edb"
       d="m 71.5,392.5 c 34.06,59.258 67.726,118.591 101,178 0.324,6.854 -0.009,13.521 -1,20 -27.669,-39.177 -55.169,-78.51 -82.5,-118 -3.2818,-4.259 -6.7818,-8.259 -10.5,-12 -11.9634,-15.956 -23.2968,-32.289 -34,-49 7.7321,-6.383 15.7321,-12.55 24,-18.5 0.948,-0.483 1.948,-0.649 3,-0.5 z"
       id="path208" /></g><g
     id="g214"
     transform="translate(-40.000001,-20)"><path
       style="opacity:0.997"
       fill="#2b5e91"
       d="m 827.5,401.5 c 35.408,61.655 70.408,123.489 105,185.5 0.948,0.483 1.948,0.649 3,0.5 -5.808,3.743 -11.475,7.743 -17,12 -2.032,-2.351 -3.865,-5.017 -5.5,-8 -28.018,-60.032 -56.518,-119.698 -85.5,-179 0,-3.667 0,-7.333 0,-11 z"
       id="path212" /></g><g
     id="g218"
     transform="translate(-40.000001,-20)"><path
       style="opacity:0.995"
       fill="#95d504"
       d="m 827.5,412.5 c 28.982,59.302 57.482,118.968 85.5,179 1.635,2.983 3.468,5.649 5.5,8 6.887,15.133 13.887,30.3 21,45.5 -4.078,3.077 -8.411,5.744 -13,8 -8.845,4.289 -17.845,8.122 -27,11.5 -23.565,-77.296 -47.565,-154.296 -72,-231 0,-7 0,-14 0,-21 z"
       id="path216" /></g><g
     id="g222"
     transform="translate(-40.000001,-20)"><path
       style="opacity:0.996"
       fill="#699300"
       d="m 827.5,433.5 c 24.435,76.704 48.435,153.704 72,231 -4.745,3.035 -9.745,5.702 -15,8 -18.681,-75.756 -37.681,-151.422 -57,-227 0,-4 0,-8 0,-12 z"
       id="path220" /></g><g
     id="g226"
     transform="translate(-40.000001,-20)"><path
       style="opacity:0.999"
       fill="#fd4f57"
       d="m 827.5,445.5 c 19.319,75.578 38.319,151.244 57,227 4.275,16.524 8.442,33.19 12.5,50 0.868,2.985 1.201,5.985 1,9 -1.816,0.829 -3.649,1.663 -5.5,2.5 -17.025,4.056 -34.025,7.889 -51,11.5 -4.67,-83.153 -9.337,-166.153 -14,-249 0,-17 0,-34 0,-51 z"
       id="path224" /></g><g
     id="g230"
     transform="translate(-40.000001,-20)"><path
       style="opacity:1"
       fill="#a29631"
       d="m 78.5,460.5 c 3.7182,3.741 7.2182,7.741 10.5,12 27.331,39.49 54.831,78.823 82.5,118 0.93,3.9 1.263,7.9 1,12 -34.75,-43.144 -69.75,-86.144 -105,-129 3.8758,-4.037 7.5424,-8.37 11,-13 z"
       id="path228" /></g><g
     id="g234"
     transform="translate(-40.000001,-20)"><path
       style="opacity:0.973"
       fill="#f6e246"
       d="m 67.5,473.5 c 35.25,42.856 70.25,85.856 105,129 0,7.333 0,14.667 0,22 -43.192,-40.685 -86.3587,-81.685 -129.5,-123 -0.7805,-1.444 -0.6139,-2.777 0.5,-4 6.7118,-6.876 13.2118,-13.876 19.5,-21 1.6147,-0.886 3.1147,-1.886 4.5,-3 z"
       id="path232" /></g><g
     id="g238"
     transform="translate(-40.000001,-20)"><path
       style="opacity:1"
       fill="#b0363c"
       d="m 827.5,496.5 c 4.663,82.847 9.33,165.847 14,249 -4.656,1.202 -9.323,2.535 -14,4 0,-84.333 0,-168.667 0,-253 z"
       id="path236" /></g><g
     id="g242"
     transform="translate(-40.000001,-20)"><path
       style="opacity:1"
       fill="#3b3b3b"
       d="m 409.5,170.5 c 5.475,0.989 11.142,1.322 17,1 22.667,0 45.333,0 68,0 89.168,0.333 178.168,-0.001 267,-1 21.925,0.989 43.925,1.322 66,1 0,57 0,114 0,171 0,9.667 0,19.333 0,29 0,4.333 0,8.667 0,13 0,5.667 0,11.333 0,17 0,3.667 0,7.333 0,11 0,7 0,14 0,21 0,4 0,8 0,12 0,17 0,34 0,51 0,84.333 0,168.667 0,253 0,26 0,52 0,78 -63,0 -126,0 -189,0 -10.667,0 -21.333,0 -32,0 -5.095,-0.279 -10.095,0.055 -15,1 -6.813,-0.991 -13.813,-1.325 -21,-1 -4.667,0 -9.333,0 -14,0 -12,0 -24,0 -36,0 -6,0 -12,0 -18,0 -3,0 -6,0 -9,0 -82.333,0 -164.667,0 -247,0 -24.667,0 -49.333,0 -74,0 0,-67.667 0,-135.333 0,-203 0,-7.333 0,-14.667 0,-22 0.263,-4.1 -0.07,-8.1 -1,-12 0.991,-6.479 1.324,-13.146 1,-20 0.256,-3.769 -0.077,-7.436 -1,-11 0.994,-9.819 1.327,-19.819 1,-30 0,-3 0,-6 0,-9 0,-8.333 0,-16.667 0,-25 0,-87.667 0,-175.333 0,-263 0,-20.333 0,-40.667 0,-61 61,0 122,0 183,0 6.667,0 13.333,0 20,0 3.333,0 6.667,0 10,0 5,0 10,0 15,0 3.109,0.236 6.109,-0.097 9,-1 z"
       id="path240" /></g><g
     id="g246"
     transform="translate(-40.000001,-20)"><path
       style="opacity:1"
       fill="#444444"
       d="m 187.5,188.5 c 208,0 416,0 624,0 0,207.333 0,414.667 0,622 -208,0 -416,0 -624,0 0,-207.333 0,-414.667 0,-622 z"
       id="path244" /></g><g
     id="g250"
     transform="translate(-40.000001,-20)"><path
       style="opacity:1"
       fill="#af363c"
       d="m 246.5,827.5 c 82.333,0 164.667,0 247,0 -80.855,4.972 -161.855,9.638 -243,14 -0.617,-0.111 -1.117,-0.444 -1.5,-1 -0.9,-4.334 -1.734,-8.668 -2.5,-13 z"
       id="path248" /></g><g
     id="g254"
     transform="translate(-40.000001,-20)"><path
       style="opacity:0.996"
       fill="#6a9202"
       d="m 502.5,827.5 c 6,0 12,0 18,0 -64.309,20.159 -128.643,40.159 -193,60 -2.038,-4.833 -4.371,-9.499 -7,-14 1.519,-0.91 3.185,-1.743 5,-2.5 59.195,-14.2 118.195,-28.7 177,-43.5 z"
       id="path252" /></g><g
     id="g258"
     transform="translate(-40.000001,-20)"><path
       style="opacity:0.995"
       fill="#95d501"
       d="m 520.5,827.5 c 12,0 24,0 36,0 -53.726,26.026 -107.726,51.86 -162,77.5 -0.752,0.671 -1.086,1.504 -1,2.5 -1.982,0.495 -3.982,0.995 -6,1.5 -13.146,6.464 -26.313,12.964 -39.5,19.5 -1,-1 -2,-2 -3,-3 -6.02,-12.538 -11.853,-25.205 -17.5,-38 64.357,-19.841 128.691,-39.841 193,-60 z"
       id="path256" /></g><g
     id="g262"
     transform="translate(-40.000001,-20)"><path
       style="opacity:0.997"
       fill="#2c5e8f"
       d="m 556.5,827.5 c 4.667,0 9.333,0 14,0 -55.234,30.956 -110.568,61.956 -166,93 -3.429,-4.519 -7.096,-8.852 -11,-13 -0.086,-0.996 0.248,-1.829 1,-2.5 54.274,-25.64 108.274,-51.474 162,-77.5 z"
       id="path260" /></g><g
     id="g266"
     transform="translate(-40.000001,-20)"><path
       style="opacity:0.989"
       fill="#418edb"
       d="m 570.5,827.5 c 7.187,-0.325 14.187,0.009 21,1 -33.796,24.07 -67.796,47.903 -102,71.5 -5.511,3.727 -10.511,7.894 -15,12.5 -16.929,11.902 -33.929,23.902 -51,36 -6.167,-8.333 -12.333,-16.667 -18.5,-25 -0.483,-0.948 -0.649,-1.948 -0.5,-3 55.432,-31.044 110.766,-62.044 166,-93 z"
       id="path264" /></g><g
     id="g270"
     transform="translate(-40.000001,-20)"><path
       style="opacity:1"
       fill="#a29631"
       d="m 606.5,827.5 c -39.961,32.323 -79.961,64.656 -120,97 -1.84,-1.668 -3.84,-3.168 -6,-4.5 -1.918,-2.731 -3.918,-5.231 -6,-7.5 4.489,-4.606 9.489,-8.773 15,-12.5 34.204,-23.597 68.204,-47.43 102,-71.5 4.905,-0.945 9.905,-1.279 15,-1 z"
       id="path268" /></g><g
     id="g274"
     transform="translate(-40.000001,-20)"><path
       style="opacity:0.979"
       fill="#f7e346"
       d="m 606.5,827.5 c 10.667,0 21.333,0 32,0 -39.427,42.27 -79.594,84.27 -120.5,126 -3.239,-1.402 -6.072,-3.402 -8.5,-6 -7.901,-7.506 -15.568,-15.173 -23,-23 40.039,-32.344 80.039,-64.677 120,-97 z"
       id="path272" /></g><g
     id="g278"
     transform="translate(-40.000001,-20)"><path
       style="opacity:0.997"
       fill="#fd4f57"
       d="m 493.5,827.5 c 3,0 6,0 9,0 -58.805,14.8 -117.805,29.3 -177,43.5 -1.815,0.757 -3.481,1.59 -5,2.5 -16.527,4.283 -33.194,8.45 -50,12.5 -3.021,0.673 -6.021,1.007 -9,1 -2.63,-8.828 -5.13,-17.661 -7.5,-26.5 -1.362,-6.31 -2.529,-12.643 -3.5,-19 81.145,-4.362 162.145,-9.028 243,-14 z"
       id="path276" /></g><g
     id="g405"
     transform="matrix(4.0483366,0,0,4.0483366,-30.603631,23.897572)"><path
       d="m 163.5,103.2 c -9.7,-3.6 -24,10.2 -31,31.4 a 83.9,83.9 0 0 0 -3.5,35.9 l -4.5,-1.9 c -8.6,-26.7 -3.8,-55.9 11.1,-77 z"
       class="l"
       id="path394" /><path
       d="m 169.8,148.8 -33.2,-13.7 c 6.1,-18.5 17.4,-29.6 24.7,-29.6 a 7.8,7.8 0 0 1 2.2,0.4 l 0.6,0.3 c 2.6,1.2 10.5,8 5.7,42.6 M 157.9,66.7 a 73.4,73.4 0 0 0 -25.8,23.4 c -14.6,21.2 -19.6,49.9 -12,76.7 a 82.2,82.2 0 0 0 3.3,9.5 L 78.9,157.9 C 62.1,116.7 77.5,67.6 113.4,48.2 Z"
       class="l"
       id="path396" /></g></svg>
